<svg width="85" height="73" viewBox="0 0 85 73" fill="none" xmlns="http://www.w3.org/2000/svg">
<path d="M46.814 47.2545C46.814 37.4364 49.8685 28.4182 55.9776 20.2C62.1594 11.9091 70.014 5.25455 79.5413 0.236373L84.8867 7.00001C80.014 10.9273 75.7231 15.2909 72.014 20.0909C68.3776 24.8909 66.5594 29.6909 66.5594 34.4909C66.5594 37.1818 67.0685 39 68.0867 39.9455C69.1776 40.8909 70.5594 41.8364 72.2322 42.7818C74.2685 44.0182 76.1958 45.8 78.014 48.1273C79.8322 50.3818 80.7413 53.3273 80.7413 56.9636C80.7413 61.2545 79.3231 64.8909 76.4867 67.8727C73.6504 70.7818 69.9776 72.2364 65.4685 72.2364C60.5231 72.2364 56.1594 70.1636 52.3776 66.0182C48.6685 61.8727 46.814 55.6182 46.814 47.2545ZM0.886718 47.2545C0.886718 37.4364 3.94126 28.4182 10.0504 20.2C16.2322 11.9091 24.0867 5.25455 33.614 0.236373L38.9594 7.00001C34.0867 10.9273 29.7958 15.2909 26.0867 20.0909C22.4504 24.8909 20.6322 29.6909 20.6322 34.4909C20.6322 37.1818 21.1413 39 22.1594 39.9455C23.2504 40.8909 24.6322 41.8364 26.3049 42.7818C28.3413 44.0182 30.2685 45.8 32.0867 48.1273C33.9049 50.3818 34.814 53.3273 34.814 56.9636C34.814 61.2545 33.3958 64.8909 30.5594 67.8727C27.7231 70.7818 24.0504 72.2364 19.5413 72.2364C14.5958 72.2364 10.2322 70.1636 6.45035 66.0182C2.74126 61.8727 0.886718 55.6182 0.886718 47.2545Z" fill="white"/>
</svg>
