<svg width="100" height="103" viewBox="0 0 100 103" fill="none" xmlns="http://www.w3.org/2000/svg">
<path d="M95.4546 37.4545H88.5791C88.0982 36.0537 87.5442 34.6789 86.9197 33.3358L91.7833 28.3259C93.5585 26.4978 93.5585 23.5333 91.7833 21.7049L78.9273 8.46285C77.1524 6.63445 74.2742 6.63445 72.4991 8.46285L67.6352 13.4724C66.3312 12.8294 64.9967 12.2592 63.6364 11.7632V4.68182C63.6364 2.09621 61.6012 0 59.0909 0H40.9091C38.3988 0 36.3636 2.09621 36.3636 4.68182V11.7635C35.0036 12.2592 33.6688 12.8294 32.3652 13.4724L27.5012 8.46285C25.7264 6.63414 22.8482 6.63445 21.073 8.46285L8.21636 21.7049C7.36394 22.5829 6.88485 23.7736 6.88485 25.0153C6.88485 26.2569 7.36364 27.4479 8.21636 28.3256L13.0803 33.3355C12.4561 34.6789 11.9021 36.0534 11.4209 37.4542H4.54545C2.03515 37.4542 0 39.5504 0 42.1361V60.8633C0 63.4489 2.03515 65.5451 4.54545 65.5451H11.4209C11.9021 66.9459 12.4561 68.3208 13.0803 69.6639L8.21636 74.6738C7.36394 75.5518 6.88485 76.7425 6.88485 77.9841C6.88485 79.2257 7.36364 80.4168 8.21636 81.2945L21.0733 94.5365C22.8485 96.3652 25.7264 96.3646 27.5015 94.5365L32.3655 89.527C33.6691 90.17 35.0036 90.7402 36.3636 91.2358V98.3182C36.3636 100.904 38.3988 103 40.9091 103H59.0909C61.6012 103 63.6364 100.904 63.6364 98.3182V91.2365C64.9967 90.7405 66.3315 90.1703 67.6352 89.5273L72.4991 94.5368C74.2739 96.3649 77.1521 96.3649 78.9273 94.5368L91.7836 81.2948C93.5588 79.4667 93.5588 76.5022 91.7836 74.6738L86.92 69.6639C87.5445 68.3205 88.0985 66.9459 88.5794 65.5451H95.4546C97.9649 65.5451 100 63.4489 100 60.8633V42.1361C100 39.5508 97.9649 37.4545 95.4546 37.4545ZM90.9091 56.1818H85.2179C83.1436 56.1818 81.3324 57.6282 80.8158 59.6972C80.0776 62.6537 78.933 65.4952 77.4136 68.1432C76.3585 69.9829 76.6461 72.3244 78.113 73.8354L82.1415 77.9847L75.7133 84.6058L71.6849 80.4564C70.2182 78.9458 67.9448 78.6499 66.1585 79.736C63.5891 81.3001 60.83 82.479 57.9579 83.2405C55.9494 83.773 54.5455 85.6386 54.5455 87.7744V93.6364H45.4545V87.7744C45.4545 85.6383 44.0506 83.773 42.0421 83.2405C39.1706 82.479 36.4121 81.3001 33.8421 79.736C32.0558 78.6492 29.7827 78.9454 28.3158 80.4564L24.2873 84.6058L17.8585 77.9847L21.887 73.8354C23.3539 72.3247 23.6415 69.9829 22.5864 68.1436C21.0679 65.4965 19.923 62.6543 19.1839 59.6966C18.6673 57.6279 16.8561 56.1818 14.7821 56.1818H9.09091V46.8182H14.7821C16.8561 46.8182 18.667 45.3721 19.1839 43.3034C19.923 40.3457 21.0679 37.5039 22.5864 34.8564C23.6415 33.0168 23.3539 30.675 21.887 29.1646L17.8588 25.0153L24.2873 18.3942L28.3158 22.5436C29.7824 24.0542 32.0567 24.3508 33.8421 23.264C36.4115 21.6999 39.1706 20.521 42.0424 19.7595C44.0506 19.2273 45.4545 17.3617 45.4545 15.2256V9.36364H54.5455V15.2256C54.5455 17.3617 55.9494 19.227 57.9579 19.7595C60.83 20.521 63.5891 21.6999 66.1585 23.264C67.9442 24.3501 70.2179 24.0546 71.6849 22.5436L75.7133 18.3942L82.1415 25.0153L78.1127 29.1646C76.6458 30.6756 76.3582 33.0174 77.4133 34.8568C78.9327 37.5045 80.077 40.3463 80.8155 43.3028C81.3321 45.3718 83.1436 46.8182 85.2176 46.8182H90.9091V56.1818Z" fill="#1E0EDC"/>
<path d="M61.803 47.5297L47.2576 38.1661C45.8564 37.2638 44.09 37.2163 42.6449 38.0413C41.1994 38.8665 40.3027 40.4343 40.3027 42.1363V60.8635C40.3027 62.5655 41.1994 64.1336 42.6449 64.9586C43.3315 65.3503 44.0903 65.5454 44.8482 65.5454C45.6858 65.5454 46.5218 65.3072 47.2573 64.8337L61.8027 55.4701C63.1318 54.6146 63.9391 53.1142 63.9391 51.4999C63.9391 49.8856 63.1321 48.3853 61.803 47.5297Z" fill="#1E0EDC"/>
</svg>
