<svg width="102" height="103" viewBox="0 0 102 103" fill="none" xmlns="http://www.w3.org/2000/svg">
<path d="M30.2812 74.0312H14.3438V70.8125H27.0938V64.375H30.2812V74.0312Z" fill="#1E0EDC"/>
<path d="M27.0938 64.375H15.2777L10.4964 59.5469H4.78125V56.3281H11.8161L16.5973 61.1562H27.0938V64.375Z" fill="#1E0EDC"/>
<path d="M23.9062 82.0781H33.4688V85.2969H23.9062V82.0781Z" fill="#1E0EDC"/>
<path d="M46.2188 93.3438H43.0312V76.5837L46.2188 73.365V62.7656H49.4062V74.6975L46.2188 77.9163V93.3438Z" fill="#1E0EDC"/>
<path d="M43.4982 78.3878L36.6562 71.4788V51.5H39.8438V70.1462L45.7518 76.1122L43.4982 78.3878Z" fill="#1E0EDC"/>
<path d="M27.0938 51.5H30.2812V61.1562H27.0938V51.5Z" fill="#1E0EDC"/>
<path d="M75.5661 67.5938H63.75V64.375H74.2464L79.0277 59.5469H90.8438V62.7656H80.3473L75.5661 67.5938Z" fill="#1E0EDC"/>
<path d="M73.3125 88.5156H70.125V75.6406H84.4688V78.8594H73.3125V88.5156Z" fill="#1E0EDC"/>
<path d="M60.5625 91.7344H57.375V78.1931L60.5625 74.9743V67.5938H63.75V76.3069L60.5625 79.5257V91.7344Z" fill="#1E0EDC"/>
<path d="M63.75 64.375H60.5625V57.2712L68.9982 48.7528L71.2518 51.0285L63.75 58.6038V64.375Z" fill="#1E0EDC"/>
<path d="M90.8438 51.5H94.0312V59.5469H90.8438V51.5Z" fill="#1E0EDC"/>
<path d="M46.2188 51.5H49.4062V59.5469H46.2188V51.5Z" fill="#1E0EDC"/>
<path d="M28.6875 65.9844C30.4479 65.9844 31.875 64.5433 31.875 62.7656C31.875 60.988 30.4479 59.5469 28.6875 59.5469C26.9271 59.5469 25.5 60.988 25.5 62.7656C25.5 64.5433 26.9271 65.9844 28.6875 65.9844Z" fill="#1E0EDC"/>
<path d="M47.8125 64.375C49.5729 64.375 51 62.9339 51 61.1562C51 59.3786 49.5729 57.9375 47.8125 57.9375C46.0521 57.9375 44.625 59.3786 44.625 61.1562C44.625 62.9339 46.0521 64.375 47.8125 64.375Z" fill="#1E0EDC"/>
<path d="M62.1562 69.2031C63.9167 69.2031 65.3438 67.762 65.3438 65.9844C65.3438 64.2067 63.9167 62.7656 62.1562 62.7656C60.3958 62.7656 58.9688 64.2067 58.9688 65.9844C58.9688 67.762 60.3958 69.2031 62.1562 69.2031Z" fill="#1E0EDC"/>
<path d="M58.9688 96.5625C60.7292 96.5625 62.1562 95.1214 62.1562 93.3438C62.1562 91.5661 60.7292 90.125 58.9688 90.125C57.2083 90.125 55.7812 91.5661 55.7812 93.3438C55.7812 95.1214 57.2083 96.5625 58.9688 96.5625Z" fill="#1E0EDC"/>
<path d="M92.4375 64.375C94.1979 64.375 95.625 62.9339 95.625 61.1562C95.625 59.3786 94.1979 57.9375 92.4375 57.9375C90.6771 57.9375 89.25 59.3786 89.25 61.1562C89.25 62.9339 90.6771 64.375 92.4375 64.375Z" fill="#1E0EDC"/>
<path d="M86.0625 80.4688C87.8229 80.4688 89.25 79.0277 89.25 77.25C89.25 75.4723 87.8229 74.0312 86.0625 74.0312C84.3021 74.0312 82.875 75.4723 82.875 77.25C82.875 79.0277 84.3021 80.4688 86.0625 80.4688Z" fill="#1E0EDC"/>
<path d="M71.7188 93.3438C73.4792 93.3438 74.9062 91.9027 74.9062 90.125C74.9062 88.3473 73.4792 86.9062 71.7188 86.9062C69.9583 86.9062 68.5312 88.3473 68.5312 90.125C68.5312 91.9027 69.9583 93.3438 71.7188 93.3438Z" fill="#1E0EDC"/>
<path d="M44.625 98.1719C46.3854 98.1719 47.8125 96.7308 47.8125 94.9531C47.8125 93.1755 46.3854 91.7344 44.625 91.7344C42.8646 91.7344 41.4375 93.1755 41.4375 94.9531C41.4375 96.7308 42.8646 98.1719 44.625 98.1719Z" fill="#1E0EDC"/>
<path d="M12.75 75.6406C14.5104 75.6406 15.9375 74.1995 15.9375 72.4219C15.9375 70.6442 14.5104 69.2031 12.75 69.2031C10.9896 69.2031 9.5625 70.6442 9.5625 72.4219C9.5625 74.1995 10.9896 75.6406 12.75 75.6406Z" fill="#1E0EDC"/>
<path d="M22.3125 86.9062C24.0729 86.9062 25.5 85.4652 25.5 83.6875C25.5 81.9098 24.0729 80.4688 22.3125 80.4688C20.5521 80.4688 19.125 81.9098 19.125 83.6875C19.125 85.4652 20.5521 86.9062 22.3125 86.9062Z" fill="#1E0EDC"/>
<path d="M35.0625 86.9062C36.8229 86.9062 38.25 85.4652 38.25 83.6875C38.25 81.9098 36.8229 80.4688 35.0625 80.4688C33.3021 80.4688 31.875 81.9098 31.875 83.6875C31.875 85.4652 33.3021 86.9062 35.0625 86.9062Z" fill="#1E0EDC"/>
<path d="M70.9012 17.5792C67.0331 12.5467 62.3061 8.9449 57.0881 7.35323C58.9385 10.1053 60.4908 14.0836 61.7307 18.8377C65.0266 18.54 68.0962 18.1103 70.9012 17.5792Z" fill="#1E0EDC"/>
<path d="M61.3324 35.0023C60.8272 30.1951 60.1148 25.927 59.2749 22.2432C56.5304 22.4331 53.7541 22.5312 51.0001 22.5312C48.2461 22.5312 45.4698 22.4331 42.727 22.2432C41.8871 25.927 41.1747 30.1967 40.6694 35.0023C44.0243 35.2646 47.4779 35.4062 51.0001 35.4062C54.5223 35.4062 57.976 35.2646 61.3324 35.0023Z" fill="#1E0EDC"/>
<path d="M39.0771 6.40369C32.7388 8.10801 26.9391 11.1385 21.981 15.1844C23.6926 15.7928 25.6051 16.3577 27.7201 16.8614C30.9474 12.3439 34.8059 8.76625 39.0771 6.40369Z" fill="#1E0EDC"/>
<path d="M51 38.6251C47.3567 38.6251 43.809 38.4818 40.3713 38.2211C40.035 42.317 39.8438 46.7492 39.8438 51.5001H62.1562C62.1562 46.7492 61.965 42.317 61.6287 38.2211C58.191 38.4818 54.6433 38.6251 51 38.6251Z" fill="#1E0EDC"/>
<path d="M31.0989 17.5792C33.9039 18.112 36.9734 18.54 40.2693 18.8378C41.5092 14.0837 43.0616 10.1053 44.9119 7.35167C39.6956 8.94334 34.9669 12.5467 31.0989 17.5792Z" fill="#1E0EDC"/>
<path d="M37.5216 34.7206C37.9965 30.2096 38.6627 25.8932 39.5186 21.9792C35.8944 21.6284 32.3738 21.1134 29.0955 20.4342C26.8483 23.9427 24.974 27.9838 23.5747 32.4225C27.8938 33.4283 32.581 34.2121 37.5216 34.7206Z" fill="#1E0EDC"/>
<path d="M51.0001 19.3125C53.5916 19.3125 56.0874 19.2304 58.4844 19.084C56.2531 10.9454 53.386 6.4375 51.0001 6.4375C48.6143 6.4375 45.7471 10.9454 43.5159 19.084C45.9129 19.2304 48.4087 19.3125 51.0001 19.3125Z" fill="#1E0EDC"/>
<path d="M9.35691 31.2299C6.426 37.36 4.78125 44.2353 4.78125 51.5H17.5312C17.5312 45.6306 18.2628 40.0026 19.5983 34.7947C15.8467 33.7792 12.4201 32.5786 9.35691 31.2299Z" fill="#1E0EDC"/>
<path d="M64.7827 37.9458C65.1541 42.3926 65.3437 46.9728 65.3437 51.5H81.2812C81.2812 45.8929 80.5848 40.5273 79.3209 35.572C74.8313 36.6229 69.9544 37.4276 64.7827 37.9458Z" fill="#1E0EDC"/>
<path d="M82.7332 17.5856C80.7522 18.3807 78.5369 19.084 76.1462 19.6907C78.3153 23.2555 80.1258 27.2805 81.4981 31.6532C85.025 30.7036 88.2619 29.5996 91.1355 28.3668C88.8676 24.3627 86.0307 20.732 82.7332 17.5856Z" fill="#1E0EDC"/>
<path d="M82.4016 34.7947C83.7372 40.0026 84.4687 45.6306 84.4687 51.5H97.2187C97.2187 44.2353 95.574 37.36 92.6431 31.2299C89.5799 32.5786 86.1533 33.7792 82.4016 34.7947Z" fill="#1E0EDC"/>
<path d="M72.9046 20.4359C69.6262 21.115 66.1056 21.63 62.4814 21.9809C63.3373 25.8932 64.0035 30.2112 64.4784 34.7223C69.4206 34.2137 74.1063 33.4299 78.4253 32.4257C77.026 27.9854 75.1533 23.9443 72.9046 20.4359Z" fill="#1E0EDC"/>
<path d="M62.9229 6.40369C67.1941 8.76625 71.0526 12.3439 74.2799 16.8598C76.3948 16.3577 78.3073 15.7912 80.019 15.1828C75.0624 11.1401 69.2612 8.10962 62.9229 6.40369Z" fill="#1E0EDC"/>
<path d="M37.2172 37.9458C32.0455 37.4276 27.1687 36.6229 22.6791 35.572C21.4152 40.5273 20.7188 45.8929 20.7188 51.5H36.6562C36.6562 46.9728 36.8459 42.3926 37.2172 37.9458Z" fill="#1E0EDC"/>
<path d="M25.8537 19.6907C23.4647 19.084 21.2478 18.3807 19.2668 17.5856C15.9693 20.7336 13.1324 24.3643 10.8645 28.3684C13.738 29.6012 16.9749 30.7053 20.5019 31.6548C21.8741 27.2805 23.6846 23.2555 25.8537 19.6907Z" fill="#1E0EDC"/>
</svg>
