<svg width="103" height="101" viewBox="0 0 103 101" fill="none" xmlns="http://www.w3.org/2000/svg">
<path d="M90.2239 0H12.2128C5.47856 0 0 5.47856 0 12.2128V73.8178C0 80.5522 5.47856 86.0308 12.2128 86.0308H31.933V94.4338H22.408C20.7506 94.4338 19.4069 95.7775 19.4069 97.4349C19.4069 99.0923 20.7506 100.436 22.408 100.436H80.0287C81.6861 100.436 83.0297 99.0923 83.0297 97.4349C83.0297 95.7775 81.6861 94.4338 80.0287 94.4338H70.5034V86.0308H90.2237C96.9581 86.0308 102.437 80.5522 102.437 73.818V12.2128C102.437 5.47856 96.9581 0 90.2239 0ZM12.2128 6.00215H90.2237C93.6483 6.00215 96.4345 8.78835 96.4345 12.2128V67.2241H6.00215V12.2128C6.00215 8.78835 8.78835 6.00215 12.2128 6.00215ZM64.5013 94.4338H37.9354V86.0308H64.5013V94.4338ZM90.2239 80.0287C85.6555 80.0287 16.5475 80.0287 12.213 80.0287C8.78835 80.0287 6.00215 77.2425 6.00215 73.818V73.2262H96.4345V73.818C96.4345 77.2425 93.6483 80.0287 90.2239 80.0287Z" fill="#1E0EDC"/>
<path d="M25.7247 18.8068H32.2114V43.9458C32.2114 46.4115 34.2173 48.4174 36.683 48.4174H62.6485C64.6793 48.4174 66.4579 47.0456 66.9735 45.0812L71.2434 28.815C71.9871 25.9808 69.8509 23.2084 66.9183 23.2084H38.2136V15.8058C38.2136 14.1484 36.8699 12.8047 35.2125 12.8047H25.7247C24.0673 12.8047 22.7236 14.1484 22.7236 15.8058C22.7236 17.4632 24.0673 18.8068 25.7247 18.8068ZM64.9341 29.2106L61.4677 42.4153H38.2136C38.2136 37.9923 38.2136 32.078 38.2136 29.2106H64.9341Z" fill="#1E0EDC"/>
<path d="M41.6148 54.4194H36.8131C35.1557 54.4194 33.812 55.7631 33.812 57.4205C33.812 59.0779 35.1557 60.4216 36.8131 60.4216H41.6148C43.2722 60.4216 44.6159 59.0779 44.6159 57.4205C44.6159 55.7631 43.2722 54.4194 41.6148 54.4194Z" fill="#1E0EDC"/>
<path d="M62.4224 54.4194H57.6207C55.9633 54.4194 54.6196 55.7631 54.6196 57.4205C54.6196 59.0779 55.9633 60.4216 57.6207 60.4216H62.4224C64.0798 60.4216 65.4235 59.0779 65.4235 57.4205C65.4235 55.7631 64.0798 54.4194 62.4224 54.4194Z" fill="#1E0EDC"/>
</svg>
