<svg width="17" height="16" viewBox="0 0 17 16" fill="none" xmlns="http://www.w3.org/2000/svg">
<path d="M8.38469 3.8978C6.00589 3.8978 4.08715 5.72933 4.08715 8C4.08715 10.2707 6.00589 12.1022 8.38469 12.1022C10.7635 12.1022 12.6822 10.2707 12.6822 8C12.6822 5.72933 10.7635 3.8978 8.38469 3.8978ZM8.38469 10.667C6.84745 10.667 5.59073 9.47094 5.59073 8C5.59073 6.52906 6.84371 5.33304 8.38469 5.33304C9.92567 5.33304 11.1786 6.52906 11.1786 8C11.1786 9.47094 9.92193 10.667 8.38469 10.667ZM13.8604 3.73C13.8604 4.26197 13.4116 4.68682 12.858 4.68682C12.3007 4.68682 11.8556 4.2584 11.8556 3.73C11.8556 3.20161 12.3045 2.77318 12.858 2.77318C13.4116 2.77318 13.8604 3.20161 13.8604 3.73ZM16.7067 4.7011C16.6431 3.41939 16.3364 2.28406 15.3528 1.34866C14.3728 0.413254 13.1834 0.120495 11.8407 0.0562312C10.4568 -0.0187437 6.30885 -0.0187437 4.92496 0.0562312C3.58596 0.116925 2.39656 0.409684 1.41288 1.34509C0.429193 2.28049 0.126233 3.41582 0.0589088 4.69753C-0.0196363 6.01852 -0.0196363 9.97791 0.0589088 11.2989C0.122493 12.5806 0.429193 13.7159 1.41288 14.6513C2.39656 15.5867 3.58222 15.8795 4.92496 15.9438C6.30885 16.0187 10.4568 16.0187 11.8407 15.9438C13.1834 15.8831 14.3728 15.5903 15.3528 14.6513C16.3327 13.7159 16.6394 12.5806 16.7067 11.2989C16.7853 9.97791 16.7853 6.02209 16.7067 4.7011ZM14.9189 12.7163C14.6271 13.416 14.0624 13.9551 13.3255 14.2372C12.2222 14.6549 9.604 14.5585 8.38469 14.5585C7.16537 14.5585 4.54346 14.6513 3.44383 14.2372C2.71074 13.9587 2.14596 13.4196 1.85048 12.7163C1.41288 11.6631 1.51386 9.1639 1.51386 8C1.51386 6.8361 1.41662 4.33337 1.85048 3.28372C2.14222 2.58396 2.707 2.04485 3.44383 1.7628C4.5472 1.34509 7.16537 1.44148 8.38469 1.44148C9.604 1.44148 12.2259 1.34866 13.3255 1.7628C14.0586 2.04128 14.6234 2.58039 14.9189 3.28372C15.3565 4.33694 15.2555 6.8361 15.2555 8C15.2555 9.1639 15.3565 11.6666 14.9189 12.7163Z" fill="#EB5757"/>
</svg>
