<svg width="16" height="16" viewBox="0 0 16 16" fill="none" xmlns="http://www.w3.org/2000/svg">
<path d="M7.99293 0C3.97296 0 0 2.19271 0 5.74145C0 7.99827 1.55157 9.28056 2.49191 9.28056C2.87981 9.28056 3.10314 8.39578 3.10314 8.14574C3.10314 7.8476 2.17455 7.21287 2.17455 5.97226C2.17455 3.39486 4.57243 1.5676 7.67556 1.5676C10.3438 1.5676 12.3185 2.80821 12.3185 5.08748C12.3185 6.78972 11.484 9.98261 8.78047 9.98261C7.80486 9.98261 6.9703 9.40558 6.9703 8.57851C6.9703 7.36675 8.00468 6.19345 8.00468 4.94322C8.00468 2.82103 4.32559 3.20572 4.32559 5.7703C4.32559 6.30886 4.40787 6.90512 4.70172 7.3956C4.16103 9.2998 3.05612 12.1369 3.05612 14.0988C3.05612 14.7046 3.16191 15.3009 3.23243 15.9068C3.36565 16.0286 3.29904 16.0158 3.50278 15.9549C5.47751 13.7429 5.40698 13.3102 6.30031 10.4154C6.78224 11.1655 8.02819 11.5694 9.01555 11.5694C13.1766 11.5694 15.0455 8.25152 15.0455 5.26059C15.0455 2.07731 11.6838 0 7.99293 0Z" fill="#EB5757"/>
</svg>
