<svg width="19" height="16" viewBox="0 0 19 16" fill="none" xmlns="http://www.w3.org/2000/svg">
<path d="M16.2021 3.98749C16.2135 4.16248 16.2135 4.33751 16.2135 4.5125C16.2135 9.84997 12.4896 16 5.68334 16C3.58645 16 1.63855 15.3375 0 14.1875C0.297928 14.225 0.584357 14.2375 0.893748 14.2375C2.62393 14.2375 4.21666 13.6 5.48854 12.5125C3.86146 12.475 2.49791 11.3125 2.02811 9.7125C2.25729 9.74997 2.48645 9.77498 2.72709 9.77498C3.05937 9.77498 3.39169 9.72496 3.70105 9.63751C2.00522 9.26247 0.733303 7.63749 0.733303 5.67499V5.62501C1.22599 5.92501 1.79896 6.11251 2.40621 6.13748C1.40933 5.41247 0.756229 4.17498 0.756229 2.77497C0.756229 2.02499 0.939528 1.33749 1.26038 0.737481C3.08227 3.18748 5.82082 4.78745 8.89163 4.96248C8.83435 4.66248 8.79996 4.35001 8.79996 4.03751C8.79996 1.81248 10.45 0 12.501 0C13.5666 0 14.5291 0.487499 15.2052 1.275C16.0416 1.10001 16.8437 0.762491 17.5541 0.300002C17.2791 1.23752 16.6947 2.02502 15.927 2.52499C16.6718 2.43753 17.3937 2.21248 18.0583 1.90001C17.5542 2.69998 16.924 3.41245 16.2021 3.98749Z" fill="#EB5757"/>
</svg>
