<?xml version="1.0" encoding="utf-8"?>
<!-- Generator: Adobe Illustrator 23.0.0, SVG Export Plug-In . SVG Version: 6.00 Build 0)  -->
<svg version="1.1" id="Layer_1" xmlns="http://www.w3.org/2000/svg" xmlns:xlink="http://www.w3.org/1999/xlink" x="0px" y="0px"
	 viewBox="0 0 3750 3750" style="enable-background:new 0 0 3750 3750;" xml:space="preserve">
<style type="text/css">
	.st0{fill:#ED1C24;}
	.st1{font-family:'SVN-GilroyHeavy';}
	.st2{font-size:329.0956px;}
	.st3{fill:#005DA6;}
	.st4{fill:#27AAE1;}
</style>
<text transform="matrix(1 0 0 1 466.6274 2977.1406)" class="st0 st1 st2">VN REALTY GROUP</text>
<g>
	<path class="st3" d="M3100.27,1466.69c0.96-1.36,1.93-2.73,2.88-4.1c-0.77,1.1-1.54,2.2-2.31,3.3
		C3100.66,1466.15,3100.47,1466.42,3100.27,1466.69z"/>
	<path class="st3" d="M3106.01,1458.48c-0.07,0.12-0.16,0.24-0.25,0.37c-0.79,1.14-1.59,2.28-2.39,3.42
		C3104.26,1461.01,3105.13,1459.75,3106.01,1458.48z"/>
	<path class="st4" d="M2694.32,1220.74v256.06c-56.15,59.3-129.88,119.51-221.68,179.05c-5.75,3.74-11.57,7.47-17.47,11.2v-584.39
		L2694.32,1220.74z"/>
	<path class="st4" d="M2366.24,1031.32v688.72c-5.76,3.25-11.53,6.46-17.3,9.64c-73.78,40.65-148.14,76-221.85,106.7V893.24
		L2366.24,1031.32z"/>
	<path class="st4" d="M2038.16,841.9v1029.51c-17.42,6.48-34.78,12.7-52.06,18.69c-30.05,10.41-59.85,20.09-89.31,29.11
		c0,0-0.02,0.01-0.05,0.02c-0.06,0.01-0.15,0.04-0.28,0.08c-0.09,0.02-0.19,0.05-0.31,0.09c-5.06,1.42-39.48,10.92-97.14,23.06
		V841.89l119.57-69.03L2038.16,841.9z"/>
	<path class="st4" d="M1710.07,893.24v1066.29c-65.91,11.48-146.91,23.14-239.15,31.53v-959.74L1710.07,893.24z"/>
	<path class="st4" d="M1381.99,1082.66v915.18c-74.56,4.56-154.83,6.66-239.15,4.81v-781.91L1381.99,1082.66z"/>
	<path class="st3" d="M3107.19,1456.75c0,0-0.03,0.05-0.09,0.14c-0.03,0.04-0.07,0.1-0.11,0.17c-0.04,0.06-0.09,0.13-0.14,0.21
		c-0.14,0.19-0.27,0.39-0.4,0.58c-0.13,0.19-0.27,0.4-0.43,0.63c-0.02,0.03-0.03,0.05-0.06,0.08c-0.18,0.26-0.39,0.55-0.64,0.86
		c-0.71,0.88-1.32,1.83-1.91,2.8c-0.01,0.02-0.02,0.03-0.03,0.05c-0.07,0.11-0.15,0.22-0.22,0.32c-0.38,0.55-0.77,1.1-1.15,1.65
		c-0.12,0.17-0.24,0.34-0.35,0.51c-0.08,0.11-0.15,0.21-0.23,0.32c-0.19,0.27-0.38,0.54-0.58,0.82c-0.18,0.26-0.37,0.53-0.57,0.8
		c-0.03,0.05-0.07,0.1-0.11,0.15c-0.33,0.47-0.66,0.93-1,1.39c-0.57,0.8-1.17,1.64-1.81,2.51c-0.43,0.58-0.86,1.18-1.31,1.8
		c-0.26,0.36-0.53,0.72-0.8,1.09c-1.16,1.58-2.35,3.16-3.53,4.74c-0.66,0.88-1.34,1.79-2.05,2.72c-0.65,0.86-1.3,1.73-1.97,2.59
		c-0.12,0.17-0.25,0.34-0.38,0.51c-0.16,0.2-0.31,0.41-0.47,0.61c-0.35,0.45-0.7,0.91-1.05,1.37c-1.13,1.46-2.3,2.97-3.51,4.53
		c-0.79,1-1.59,2.03-2.42,3.08c-0.15,0.2-0.3,0.4-0.46,0.59c-52.11,66.22-178.31,208.27-385.08,331.93
		c-70.31,42.05-149.94,81.98-239.15,116.07c-7.02,2.69-14.11,5.34-21.25,7.95c-20.37,7.44-40.57,15.31-60.69,23.4
		c-2.32,0.93-4.65,1.87-6.99,2.79c-73.9,29.43-153.79,56.37-239.15,78.68c-29.01,7.59-58.67,14.64-88.93,21.06
		c-75.98,16.14-155.81,28.37-239.15,35.35c-18.24,1.53-36.65,2.81-55.22,3.82c-0.01,0-0.01,0-0.02,0
		c-11.27,1.26-22.5,2.42-33.7,3.49c-81.89,7.81-161.95,10.54-239.15,9.43c-30.1-0.42-59.76-1.44-88.93-2.97
		c-43.64-2.27-86.17-5.69-127.38-10c-38.45-4.03-75.77-8.83-111.77-14.21c-315.79-47.2-531.32-138.97-535.81-140.88
		c78.87,21.8,157.43,38.58,234.7,51.2c97.47,15.92,192.88,25.22,284.3,29.65c5.62,0.28,11.22,0.53,16.81,0.77
		c83.72,3.54,163.95,3.04,239.15-0.13c30.51-1.29,60.18-3.01,88.93-5.1c89.82-6.49,170.57-16.39,239.15-26.94
		c32.49-5,62.25-10.14,88.94-15.13c91.12-17.04,146.53-32.33,153.05-34.16c0.12-0.04,0.22-0.07,0.31-0.09
		c0.13-0.04,0.22-0.07,0.28-0.08c0.03-0.01,0.05-0.02,0.05-0.02c28.2-8.63,56.71-17.87,85.46-27.79c1.28-0.43,2.57-0.88,3.85-1.32
		c28.17-9.76,56.55-20.15,85.08-31.23c12.84-4.97,25.71-10.09,38.61-15.35c66.54-27.12,133.69-57.98,200.54-93.08
		c12.88-6.76,25.76-13.68,38.61-20.76c16.8-9.25,33.58-18.79,50.32-28.62c9.36-5.48,18.7-11.06,28.03-16.73
		c15.57-9.47,30.7-18.96,45.35-28.48c63.98-41.5,119.18-83.32,165.77-124.94c27.43-24.49,51.88-48.92,73.38-73.16
		c53.67-60.53,88.96-119.94,106.42-176.58c23.76-77.09,14.47-149.06-26.51-211.7v-0.01c-19.51-29.81-46.2-57.51-79.91-82.64
		c-10.06-7.5-20.74-14.78-32.04-21.81c-54.65-34-123.82-62.39-207.11-83.81c-7.08-1.82-14.27-3.6-21.56-5.32
		c-32.08-7.58-66.14-14.16-102.14-19.67c-52.27-8.04-108.65-13.82-169.05-17.14c0,0,68.7-7.59,169.05-9.31
		c7.34-0.12,14.85-0.21,22.51-0.27c31.46-0.23,65.52,0.16,101.19,1.54c6.09,0.23,12.21,0.5,18.38,0.79
		c5.91,0.28,11.85,0.58,17.84,0.92c0.01,0.02,0.01,0.02,0.02,0.02h0.03c4.05,0.21,8.11,0.46,12.2,0.73
		c61.88,3.88,127.01,11,190.68,23.08c93.2,17.66,183.25,45.94,255.29,90.22c46.64,28.66,85.74,64.04,113.27,107.59v0.01
		c13.33,21.08,23.94,44.09,31.39,69.17c5.68,19.15,9.29,38.24,10.98,57.27C3185.79,1302.13,3158.64,1381.12,3107.19,1456.75z"/>
	<path class="st3" d="M3106.01,1458.48c-0.07,0.12-0.16,0.24-0.25,0.37c-1.04,1.54-2.69,3.91-4.92,7.04
		c-0.18,0.26-0.37,0.53-0.57,0.8c0.96-1.36,1.93-2.73,2.88-4.1c0.07-0.1,0.15-0.21,0.22-0.32
		C3104.26,1461.01,3105.13,1459.75,3106.01,1458.48z"/>
	<path class="st3" d="M2694.33,1571.95v478.89l-239.15,138.07V1742.1c9.36-5.48,18.7-11.06,28.03-16.73
		c15.57-9.47,30.7-18.96,45.35-28.48C2592.54,1655.39,2647.74,1613.57,2694.33,1571.95z"/>
	<path class="st3" d="M2366.25,1791.48v448.77l-178.62,103.13l-60.53,34.95v-478.42c12.84-4.97,25.71-10.09,38.61-15.35
		C2232.25,1857.44,2299.4,1826.58,2366.25,1791.48z"/>
	<path class="st3" d="M2038.17,1932.46v497.21l-119.58,69.04l-119.57-69.04V1994.6c91.12-17.04,146.53-32.33,153.05-34.16
		c0.12-0.04,0.22-0.07,0.31-0.09c0.13-0.04,0.22-0.07,0.28-0.08c0.03-0.01,0.05-0.02,0.05-0.02
		C1980.91,1951.62,2009.42,1942.38,2038.17,1932.46z"/>
	<path class="st3" d="M1710.08,2009.73v368.59l-60.53-34.94l-178.62-103.13v-203.58C1560.75,2030.18,1641.5,2020.28,1710.08,2009.73
		z"/>
	<path class="st3" d="M1382,2041.77v147.14l-127.38-73.54c-38.45-4.03-75.77-8.83-111.77-14.21v-59.26
		C1226.57,2045.44,1306.8,2044.94,1382,2041.77z"/>
</g>
</svg>
