<svg width="81" height="81" viewBox="0 0 81 81" fill="none" xmlns="http://www.w3.org/2000/svg">
<g clip-path="url(#clip0_102_76)">
<path d="M80.2314 40.6748C78.3928 44.7489 76.5542 48.8231 74.7365 52.8973C73.9425 54.6523 72.8561 56.1984 71.498 57.5565C68.8446 60.189 66.2121 62.8215 63.5168 65.5168C64.4152 66.5823 64.2272 67.8568 64.2272 69.0895C64.2272 71.7638 64.1645 74.459 64.2481 77.1334C64.2899 78.7839 63.8302 80.0375 62.2423 80.7061C56.9146 80.7061 51.6077 80.7061 46.28 80.7061C44.713 80.142 44.1489 79.0138 44.1697 77.3841C44.2324 74.1874 44.1906 70.9699 44.1906 67.7732C44.1906 65.9973 44.7548 65.2869 46.468 64.7228C46.656 64.6601 46.8232 64.2841 46.8441 64.0333C46.9903 62.2992 46.865 60.5024 47.2619 58.8309C48.2021 54.7986 50.375 51.6855 54.4283 50.1185C56.8728 49.1783 59.1084 47.7993 61.0305 46.0234C63.4959 43.767 66.1285 43.2655 69.1789 44.8743C69.931 43.1402 70.6623 41.4269 71.3936 39.7137C71.6025 39.2122 71.8114 38.7108 72.0413 38.2094C72.8561 36.4334 74.4022 35.5141 76.2826 35.6186C78.0585 35.7231 79.4583 36.8722 80.0433 38.669C80.0851 38.8153 80.1478 38.9615 80.2105 39.1078C80.2314 39.6301 80.2314 40.1524 80.2314 40.6748ZM49.6229 64.681C49.8945 64.7019 50.1452 64.7228 50.3959 64.7228C53.5508 64.7228 56.7057 64.7437 59.8605 64.7019C60.2784 64.7019 60.7798 64.493 61.0723 64.2005C63.9765 61.359 66.8597 58.4966 69.6803 55.5716C70.5787 54.6523 71.4145 53.5868 71.9577 52.4376C73.8381 48.5515 75.5722 44.6027 77.3481 40.6539C77.4944 40.3196 77.557 39.8808 77.4735 39.5256C77.3272 38.8153 76.8467 38.3974 76.1154 38.3347C75.3006 38.272 74.7783 38.6481 74.4649 39.3794C73.5247 41.5523 72.5845 43.7252 71.6652 45.8981C70.7877 47.9874 69.555 49.826 67.9253 51.4348C66.0658 53.2734 64.2481 55.112 62.3886 56.9506C62.2215 57.1177 62.0543 57.2848 61.8663 57.4102C61.3022 57.7863 60.5918 57.7236 60.153 57.2431C59.6934 56.7416 59.6516 56.1775 60.0277 55.5925C60.1739 55.3836 60.362 55.1955 60.55 55.0075C62.3886 53.1689 64.2481 51.3303 66.0658 49.4708C66.7135 48.8022 67.2985 48.0709 67.9253 47.3815C66.5463 46.2532 64.8122 46.295 63.4333 47.5068C60.8634 49.7842 57.9592 51.5183 54.8044 52.9182C53.7597 53.3778 52.736 54.1718 51.9838 55.0493C49.6647 57.8281 49.3095 61.1501 49.6229 64.681ZM61.5111 78.0109C61.5111 74.459 61.5111 70.949 61.5111 67.418C56.6221 67.418 51.7958 67.418 46.9485 67.418C46.9485 70.9699 46.9485 74.459 46.9485 78.0109C51.7958 78.0109 56.6012 78.0109 61.5111 78.0109Z" fill="white"/>
<path d="M18.1577 80.7062C16.5698 80.0167 16.1102 78.784 16.152 77.1334C16.2355 74.1039 16.1311 71.0953 16.1938 68.0658C16.2146 67.2092 16.4654 66.3734 16.6116 65.5377C16.6952 65.5377 16.7579 65.5377 16.8414 65.5377C16.6743 65.3497 16.4863 65.1616 16.3191 64.9736C13.8537 62.5082 11.3883 60.0219 8.92293 57.5774C7.58576 56.2402 6.49932 54.7359 5.72627 53.0018C4.03392 49.2619 2.29979 45.522 0.628332 41.7613C-0.708831 38.7317 1.44317 35.4933 4.7025 35.7022C6.47842 35.8067 7.71112 36.7678 8.42149 38.3766C9.23632 40.236 10.0094 42.1164 10.8242 43.9759C10.9496 44.2893 11.0958 44.5818 11.2421 44.937C12.7673 44.0386 14.3552 43.6416 16.0057 44.1431C16.9668 44.4356 17.9697 44.9161 18.7427 45.5638C21.1454 47.5904 23.778 49.241 26.6821 50.4528C30.1504 51.9153 31.9472 54.7986 33.0337 58.2251C33.6187 60.0637 33.5769 61.9859 33.556 63.8871C33.556 64.4095 33.5769 64.7229 34.2455 64.8273C35.3528 65.0154 36.1885 66.0182 36.2094 67.1674C36.2512 70.8655 36.2512 74.5636 36.2094 78.2617C36.1885 79.5779 35.2901 80.2883 34.1619 80.727C28.7923 80.7062 23.4646 80.7062 18.1577 80.7062ZM12.4539 47.3606C13.0598 48.0501 13.603 48.7187 14.188 49.3455C14.8357 50.035 15.5043 50.6826 16.1729 51.3303C17.4891 52.6675 18.8472 53.9629 20.1426 55.3209C20.9783 56.1775 20.6649 57.4729 19.5784 57.6192C19.1397 57.6819 18.5338 57.4311 18.2204 57.1177C16.1311 55.112 14.1044 53.0436 12.0778 50.996C10.6571 49.5544 9.59151 47.8621 8.79757 46.0026C7.87827 43.8506 6.95897 41.6986 6.01877 39.5466C5.53823 38.4601 4.7025 38.0423 3.8041 38.4392C2.90569 38.8362 2.65497 39.7555 3.13551 40.8211C4.80697 44.5192 6.43664 48.2381 8.19167 51.8944C8.81846 53.2107 9.69597 54.4643 10.6988 55.5299C13.5194 58.4967 16.4445 61.3591 19.3695 64.2214C19.662 64.5139 20.1635 64.702 20.5813 64.702C23.7153 64.7438 26.8284 64.7229 29.9624 64.7229C30.234 64.7229 30.5265 64.7229 31.007 64.7229C30.8399 62.8216 30.8608 61.0039 30.4638 59.2697C29.8579 56.6163 28.5625 54.2345 25.93 53.0645C22.5871 51.6019 19.4949 49.7842 16.7579 47.3606C15.5461 46.2951 13.8537 46.3369 12.4539 47.3606ZM33.4724 67.4181C28.5625 67.4181 23.7571 67.4181 18.9099 67.4181C18.9099 70.9699 18.9099 74.5009 18.9099 77.99C23.7989 77.99 28.6461 77.99 33.4724 77.99C33.4724 74.4382 33.4724 70.9699 33.4724 67.4181Z" fill="white"/>
<path d="M61.5109 22.1006C61.5109 25.6106 61.6363 29.1416 61.4692 32.6516C61.2811 36.9974 59.3589 40.6119 55.8907 43.2236C51.2315 46.7337 46.447 50.0975 41.7251 53.503C40.6804 54.2552 39.6776 54.2343 38.612 53.4613C34.0155 50.1601 29.419 46.9008 24.8643 43.537C20.8528 40.5702 18.868 36.496 18.8471 31.5025C18.8262 24.7331 18.8471 17.9428 18.8262 11.1734C18.8262 10.275 19.1605 9.73182 19.9962 9.37664C26.4104 6.59784 32.8246 3.77726 39.2179 0.956683C39.8865 0.664179 40.4715 0.664179 41.161 0.956683C47.5334 3.77726 53.9267 6.57695 60.32 9.33485C61.2184 9.73182 61.5736 10.2959 61.5527 11.257C61.5318 14.8715 61.5318 18.507 61.5318 22.1215C61.5318 22.1006 61.5109 22.1006 61.5109 22.1006ZM21.5214 22.5184C21.5214 25.4853 21.5214 28.4521 21.5214 31.4398C21.5423 35.7021 23.2764 39.0867 26.7238 41.573C31.0069 44.6652 35.3109 47.7574 39.594 50.8705C40.0536 51.2048 40.3253 51.2257 40.8058 50.8914C45.0889 47.7783 49.372 44.707 53.6551 41.5939C57.1025 39.1076 58.8575 35.7229 58.8784 31.4607C58.8993 25.0674 58.8784 18.695 58.8993 12.3017C58.8993 11.7794 58.7322 11.5077 58.2516 11.3197C52.4015 8.77073 46.5723 6.22177 40.7222 3.6728C40.4297 3.54744 39.991 3.54744 39.7194 3.6728C33.8693 6.20087 28.0401 8.77073 22.19 11.3197C21.6676 11.5495 21.5214 11.842 21.5214 12.3853C21.5214 15.7491 21.5214 19.1338 21.5214 22.5184Z" fill="white"/>
<path d="M24.1958 23.417C24.1958 20.492 24.2167 17.5878 24.1749 14.6628C24.154 13.7226 24.5092 13.1794 25.3867 12.8033C30.0459 10.7976 34.6842 8.75002 39.3225 6.70249C39.9075 6.43088 40.4298 6.43088 41.0357 6.70249C45.7158 8.77091 50.4168 10.8184 55.1177 12.866C55.849 13.1794 56.1833 13.6808 56.1833 14.4956C56.1624 20.2204 56.1833 25.966 56.1624 31.6907C56.1415 34.8874 54.7835 37.4155 52.2345 39.2959C48.5782 41.9702 44.8801 44.6027 41.2029 47.2562C40.3672 47.8621 39.9911 47.8621 39.1554 47.2562C35.4782 44.6027 31.801 41.9702 28.1238 39.2959C25.533 37.4155 24.1958 34.8456 24.1749 31.6281C24.1749 28.8911 24.1958 26.154 24.1958 23.417ZM26.8702 23.9394C26.8702 26.4048 26.8911 28.891 26.8702 31.3564C26.8493 33.8845 27.873 35.8276 29.8997 37.2692C33.159 39.6093 36.4183 41.9493 39.6568 44.3102C40.0538 44.6027 40.3254 44.6445 40.7432 44.3311C44.0444 41.9284 47.3664 39.5466 50.6884 37.1439C52.5897 35.7649 53.5508 33.8845 53.5508 31.5236C53.5508 26.2585 53.5508 20.9934 53.5716 15.7283C53.5716 15.2478 53.4463 14.9971 52.9866 14.7881C48.9125 13.0331 44.8383 11.2154 40.7432 9.46039C40.4507 9.33503 40.0329 9.33503 39.7404 9.46039C35.6662 11.2154 31.592 13.0331 27.497 14.7881C26.9955 14.9971 26.8702 15.2896 26.8911 15.791C26.8702 18.528 26.8702 21.2233 26.8702 23.9394Z" fill="white"/>
<path d="M37.1913 32.0666C37.3794 31.795 37.5465 31.5443 37.7346 31.2936C40.7432 26.7598 43.7727 22.2468 46.7813 17.713C46.9067 17.525 47.032 17.3161 47.1783 17.1489C47.6588 16.6057 48.3692 16.5012 48.9333 16.8982C49.4974 17.2743 49.6855 17.9846 49.3721 18.6323C49.2885 18.7995 49.184 18.9457 49.0796 19.092C45.6949 24.1899 42.2893 29.267 38.9046 34.3649C38.1106 35.5558 37.5047 35.6603 36.3347 34.8036C34.7468 33.6127 33.1589 32.4427 31.592 31.2518C30.8607 30.7086 30.6727 30.0818 31.0069 29.4341C31.4039 28.6611 32.3232 28.4939 33.1381 29.0789C33.8066 29.5595 34.4752 30.0818 35.1438 30.5832C35.8124 31.0429 36.481 31.5443 37.1913 32.0666Z" fill="white"/>
</g>
<defs>
<clipPath id="clip0_102_76">
<rect width="80.0209" height="80" fill="white" transform="translate(0.210449 0.706055)"/>
</clipPath>
</defs>
</svg>
