<svg width="22" height="28" viewBox="0 0 22 28" fill="none" xmlns="http://www.w3.org/2000/svg">
<path d="M21.9998 7.92028C22.0098 7.56304 21.9467 7.20753 21.8143 6.87555C21.682 6.54357 21.4833 6.24213 21.2303 5.98971L16.0101 0.769527C15.5107 0.278998 14.8395 0.00287674 14.1395 0H1.99957C0.900032 0 0 0.889532 0 1.99957V26.0004C0 27.1 0.900032 28 1.99957 28H20.0002C21.0998 28 21.9998 27.1 21.9998 26.0004V7.92028ZM14.4995 3.51013L18.4897 7.50027H14.4995V3.51013V3.51013ZM18.9997 24.9999H3.00011V3.00011H11.4994V7.86028C11.4994 9.30933 12.68 10.5004 14.1395 10.5004H18.9997V24.9999V24.9999Z" fill="black"/>
<path d="M8.00274 9.19988C8.21695 9.20644 8.4303 9.16991 8.63012 9.09246C8.82995 9.01502 9.01219 8.89823 9.16604 8.74903C9.31988 8.59982 9.44219 8.42124 9.52572 8.22388C9.60925 8.02651 9.65229 7.81438 9.65229 7.60007C9.65229 7.38576 9.60925 7.17363 9.52572 6.97626C9.44219 6.7789 9.31988 6.60032 9.16604 6.45111C9.01219 6.30191 8.82995 6.18512 8.63012 6.10767C8.4303 6.03023 8.21695 5.9937 8.00274 6.00026C7.58692 6.013 7.1924 6.18713 6.90277 6.48576C6.61315 6.78439 6.45117 7.18406 6.45117 7.60007C6.45117 8.01608 6.61315 8.41575 6.90277 8.71438C7.1924 9.01301 7.58692 9.18714 8.00274 9.19988V9.19988Z" fill="black"/>
<path fill-rule="evenodd" clip-rule="evenodd" d="M11.2 12.666C11.2 10.9649 9.76896 9.7334 8.0004 9.7334C6.23333 9.7334 4.80078 10.9634 4.80078 12.666V13.4655C4.80078 13.6072 4.85704 13.743 4.95719 13.8431C5.05734 13.9433 5.19317 13.9996 5.3348 13.9996H10.6675C10.8089 13.9992 10.9443 13.9427 11.0441 13.8426C11.144 13.7425 11.2 13.6069 11.2 13.4655V12.666ZM5.2508 17.7497C5.2508 17.5508 5.32982 17.36 5.47047 17.2193C5.61113 17.0787 5.8019 16.9997 6.00082 16.9997H16.0002C16.1991 16.9997 16.3899 17.0787 16.5305 17.2193C16.6712 17.36 16.7502 17.5508 16.7502 17.7497C16.7502 17.9486 16.6712 18.1394 16.5305 18.28C16.3899 18.4207 16.1991 18.4997 16.0002 18.4997H6.00082C5.8019 18.4997 5.61113 18.4207 5.47047 18.28C5.32982 18.1394 5.2508 17.9486 5.2508 17.7497ZM5.2508 21.2493C5.2508 21.0504 5.32982 20.8596 5.47047 20.719C5.61113 20.5783 5.8019 20.4993 6.00082 20.4993H16.0002C16.1991 20.4993 16.3899 20.5783 16.5305 20.719C16.6712 20.8596 16.7502 21.0504 16.7502 21.2493C16.7502 21.4482 16.6712 21.639 16.5305 21.7797C16.3899 21.9203 16.1991 21.9993 16.0002 21.9993H6.00082C5.8019 21.9993 5.61113 21.9203 5.47047 21.7797C5.32982 21.639 5.2508 21.4482 5.2508 21.2493Z" fill="black"/>
</svg>
