<svg width="31" height="32" viewBox="0 0 31 32" fill="none" xmlns="http://www.w3.org/2000/svg">
<path d="M15 19.8667C15.3956 19.8667 15.7822 19.9937 16.1111 20.2318C16.44 20.4699 16.6964 20.8083 16.8478 21.2042C16.9991 21.6001 17.0387 22.0357 16.9616 22.456C16.8844 22.8763 16.6939 23.2624 16.4142 23.5654C16.1345 23.8684 15.7781 24.0748 15.3902 24.1584C15.0022 24.242 14.6001 24.1991 14.2346 24.0351C13.8692 23.8711 13.5568 23.5934 13.3371 23.2371C13.1173 22.8808 13 22.4619 13 22.0333C13 21.4587 13.2107 20.9076 13.5858 20.5013C13.9609 20.0949 14.4696 19.8667 15 19.8667ZM15 19C14.4462 19 13.9049 19.1779 13.4444 19.5112C12.9839 19.8445 12.6251 20.3183 12.4131 20.8725C12.2012 21.4268 12.1458 22.0367 12.2538 22.6251C12.3618 23.2135 12.6285 23.754 13.0201 24.1782C13.4117 24.6024 13.9106 24.8913 14.4537 25.0084C14.9969 25.1254 15.5599 25.0654 16.0715 24.8358C16.5831 24.6062 17.0204 24.2174 17.3281 23.7186C17.6358 23.2197 17.8 22.6333 17.8 22.0333C17.8 21.2288 17.505 20.4573 16.9799 19.8884C16.4548 19.3196 15.7426 19 15 19ZM19 32H18.2V29.8333C18.2 29.5488 18.1483 29.2671 18.0478 29.0042C17.9473 28.7413 17.7999 28.5025 17.6142 28.3013C17.4285 28.1001 17.208 27.9405 16.9654 27.8316C16.7227 27.7227 16.4626 27.6667 16.2 27.6667H13.8C13.2696 27.6667 12.7609 27.8949 12.3858 28.3013C12.0107 28.7076 11.8 29.2587 11.8 29.8333V32H11V29.8333C11 29.0288 11.295 28.2573 11.8201 27.6884C12.3452 27.1196 13.0574 26.8 13.8 26.8H16.2C16.9426 26.8 17.6548 27.1196 18.1799 27.6884C18.705 28.2573 19 29.0288 19 29.8333V32Z" fill="black"/>
<path d="M4.6836 12.0657C4.63037 12.0231 4.5648 12 4.4973 12C4.4298 12 4.36423 12.0231 4.311 12.0657L0 15.5134L0.3729 15.9971L0.9 15.5756V19.3846C0.900317 19.5477 0.963633 19.7041 1.07609 19.8194C1.18854 19.9347 1.34097 19.9997 1.5 20H7.5C7.65903 19.9997 7.81146 19.9347 7.92391 19.8194C8.03637 19.7041 8.09968 19.5477 8.1 19.3846V15.5784L8.6271 15.9999L9 15.5162L4.6836 12.0657ZM5.1 19.3846H3.9V16.923H5.1V19.3846ZM5.7 19.3846V16.923C5.69984 16.7599 5.63658 16.6034 5.52409 16.488C5.4116 16.3727 5.25908 16.3078 5.1 16.3076H3.9C3.74092 16.3078 3.5884 16.3727 3.47591 16.488C3.36342 16.6034 3.30016 16.7599 3.3 16.923V19.3846H1.5V15.0959L4.5 12.6989L7.5 15.099V19.3846H5.7Z" fill="black"/>
<path d="M28.5814 13.3503L29.0338 14.666H26.875V12.6665H27.6031C27.8195 12.6665 28.0305 12.7326 28.2061 12.8553C28.3817 12.978 28.513 13.1512 28.5814 13.3503V13.3503ZM29.2627 15.3325L29.2647 15.3392L29.4476 15.3832L29.5315 15.4032C29.7547 15.4573 29.9528 15.5822 30.0943 15.758C30.2358 15.9339 30.3126 16.1506 30.3125 16.3736V17.4986C30.3125 17.6053 30.2781 17.7053 30.2183 17.7866C30.0953 17.4411 29.8585 17.1445 29.5445 16.9423C29.2304 16.7401 28.8565 16.6437 28.4804 16.6678C28.1042 16.6919 27.7467 16.8352 27.4628 17.0756C27.1789 17.3161 26.9845 17.6404 26.9094 17.9985H24.0906C24.0155 17.6404 23.8211 17.3161 23.5372 17.0756C23.2533 16.8352 22.8958 16.6919 22.5196 16.6678C22.1435 16.6437 21.7696 16.7401 21.4555 16.9423C21.1415 17.1445 20.9047 17.4411 20.7817 17.7866C20.7203 17.7024 20.6874 17.6018 20.6875 17.4986V16.6902C20.6874 16.4698 20.7625 16.2555 20.901 16.0807C21.0395 15.906 21.2337 15.7805 21.4534 15.7237L22.9672 15.3325H29.2627V15.3325ZM23.5255 14.666L24.3766 13.181C24.4658 13.0253 24.5964 12.8954 24.7547 12.8049C24.913 12.7145 25.0935 12.6667 25.2772 12.6665H26.1875V14.666H23.5255ZM20 17.4986C20 17.9699 20.2888 18.3758 20.7033 18.5597C20.7584 18.9497 20.954 19.3081 21.2556 19.5716C21.5572 19.8351 21.9453 19.9865 22.3511 19.9991C22.7569 20.0118 23.1542 19.8847 23.4726 19.6405C23.791 19.3963 24.0099 19.0507 24.0906 18.665H26.9094C26.9901 19.0507 27.209 19.3963 27.5274 19.6405C27.8458 19.8847 28.2431 20.0118 28.6489 19.9991C29.0547 19.9865 29.4428 19.8351 29.7444 19.5716C30.046 19.3081 30.2416 18.9497 30.2967 18.5597C30.5065 18.4668 30.6843 18.3174 30.809 18.1293C30.9337 17.9412 31 17.7223 31 17.4986V16.3736C31 16.0194 30.8836 15.6743 30.6676 15.3886C30.4516 15.1029 30.1474 14.8913 29.7989 14.7846L29.2331 13.1391C29.1191 12.8075 28.9004 12.5191 28.608 12.3147C28.3155 12.1103 27.9642 12.0002 27.6038 12H25.2779C24.9712 11.9998 24.6701 12.0792 24.4057 12.2299C24.1413 12.3806 23.9233 12.5972 23.7744 12.8571L22.7156 14.708L21.2767 15.0799C20.9106 15.1744 20.5869 15.3835 20.356 15.6747C20.1251 15.9659 20 16.3229 20 16.6902V17.4986ZM28.5938 17.332C28.8673 17.332 29.1296 17.4373 29.323 17.6248C29.5164 17.8123 29.625 18.0666 29.625 18.3318C29.625 18.5969 29.5164 18.8512 29.323 19.0387C29.1296 19.2262 28.8673 19.3315 28.5938 19.3315C28.3202 19.3315 28.0579 19.2262 27.8645 19.0387C27.6711 18.8512 27.5625 18.5969 27.5625 18.3318C27.5625 18.0666 27.6711 17.8123 27.8645 17.6248C28.0579 17.4373 28.3202 17.332 28.5938 17.332ZM22.4062 17.332C22.6798 17.332 22.9421 17.4373 23.1355 17.6248C23.3289 17.8123 23.4375 18.0666 23.4375 18.3318C23.4375 18.5969 23.3289 18.8512 23.1355 19.0387C22.9421 19.2262 22.6798 19.3315 22.4062 19.3315C22.1327 19.3315 21.8704 19.2262 21.677 19.0387C21.4836 18.8512 21.375 18.5969 21.375 18.3318C21.375 18.0666 21.4836 17.8123 21.677 17.6248C21.8704 17.4373 22.1327 17.332 22.4062 17.332V17.332Z" fill="black"/>
<path d="M14.7695 13C14.843 13 14.9087 13.0457 14.9335 13.1142L15.11 13.6035C15.1732 13.6192 15.2275 13.635 15.2735 13.6515C15.3237 13.6695 15.3885 13.6967 15.4685 13.734L15.8795 13.5165C15.913 13.4987 15.9514 13.4923 15.9889 13.4982C16.0264 13.5041 16.061 13.522 16.0875 13.5492L16.4489 13.923C16.4969 13.9727 16.5104 14.0455 16.4834 14.109L16.2907 14.5607C16.3227 14.6195 16.3482 14.6697 16.3677 14.7117C16.3887 14.7575 16.4147 14.8205 16.4457 14.9017L16.8949 15.0942C16.9624 15.123 17.0042 15.1905 16.9997 15.2627L16.9667 15.7815C16.9644 15.8152 16.9523 15.8475 16.9319 15.8744C16.9114 15.9012 16.8835 15.9215 16.8517 15.9327L16.4262 16.084C16.4139 16.1427 16.4012 16.193 16.3877 16.2355C16.3659 16.3011 16.3411 16.3657 16.3132 16.429L16.5269 16.9015C16.542 16.9347 16.5461 16.9718 16.5385 17.0075C16.531 17.0432 16.5122 17.0755 16.4849 17.0997L16.0785 17.4627C16.0517 17.4865 16.0183 17.5016 15.9827 17.5058C15.9471 17.5101 15.9111 17.5035 15.8795 17.4867L15.4605 17.2647C15.3949 17.2994 15.3273 17.33 15.258 17.3564L15.075 17.4249L14.9125 17.8749C14.9005 17.9079 14.8787 17.9364 14.8502 17.9568C14.8216 17.9772 14.7876 17.9885 14.7525 17.9892L14.2775 17.9999C14.2415 18.0009 14.2061 17.9906 14.1761 17.9706C14.1462 17.9506 14.1232 17.9218 14.1103 17.8882L13.9188 17.3814C13.8534 17.3591 13.7887 17.3349 13.7248 17.3089C13.6725 17.2863 13.6209 17.2619 13.5703 17.2357L13.0953 17.4387C13.064 17.452 13.0295 17.456 12.996 17.4501C12.9625 17.4442 12.9314 17.4287 12.9066 17.4054L12.5551 17.0757C12.5289 17.0513 12.5111 17.0192 12.5041 16.9841C12.4972 16.9489 12.5014 16.9125 12.5163 16.88L12.7206 16.435C12.6934 16.3823 12.6682 16.3285 12.6451 16.274C12.618 16.2071 12.593 16.1395 12.5701 16.0712L12.1226 15.935C12.0862 15.924 12.0545 15.9013 12.0323 15.8704C12.0102 15.8395 11.9989 15.8022 12.0001 15.7642L12.0176 15.284C12.0188 15.2526 12.0286 15.2222 12.0459 15.1961C12.0632 15.1699 12.0873 15.1489 12.1156 15.1355L12.5851 14.91C12.6068 14.8302 12.6258 14.7682 12.6426 14.723C12.6662 14.6625 12.6923 14.6032 12.7211 14.545L12.5176 14.115C12.5021 14.0823 12.4974 14.0456 12.5042 14.0101C12.5109 13.9746 12.5287 13.9422 12.5551 13.9175L12.9061 13.586C12.9307 13.5628 12.9615 13.5472 12.9947 13.5411C13.028 13.5349 13.0623 13.5386 13.0936 13.5515L13.568 13.7475C13.6205 13.7125 13.668 13.6842 13.711 13.6615C13.7623 13.6342 13.8308 13.6057 13.917 13.575L14.082 13.1147C14.0942 13.0811 14.1165 13.052 14.1459 13.0314C14.1752 13.0109 14.2102 12.9999 14.246 13H14.7695ZM14.647 13.3442H14.3688L14.2175 13.7677C14.2086 13.7924 14.1942 13.8148 14.1754 13.8331C14.1566 13.8514 14.1339 13.8652 14.109 13.8735C14 13.9097 13.9213 13.941 13.8753 13.9652C13.8265 13.991 13.7643 14.0302 13.6903 14.0827C13.6661 14.0997 13.6379 14.1103 13.6085 14.1136C13.5791 14.1168 13.5494 14.1126 13.522 14.1012L13.0646 13.9125L12.8863 14.081L13.0721 14.4735C13.0832 14.4968 13.0888 14.5224 13.0886 14.5483C13.0883 14.5741 13.0821 14.5996 13.0706 14.6227C13.0206 14.723 12.9868 14.797 12.9698 14.8425C12.9437 14.9182 12.9212 14.9951 12.9023 15.073C12.896 15.0973 12.8845 15.12 12.8685 15.1395C12.8525 15.1589 12.8325 15.1746 12.8098 15.1855L12.3623 15.4002L12.3533 15.6452L12.7583 15.7682C12.8121 15.7845 12.8546 15.8257 12.8723 15.8787C12.9123 15.9987 12.9443 16.0872 12.9673 16.1427C12.9978 16.2131 13.0315 16.2821 13.0683 16.3495C13.0808 16.3726 13.0877 16.3984 13.0885 16.4247C13.0893 16.4509 13.084 16.4771 13.0731 16.501L12.8853 16.9105L13.0631 17.0775L13.5085 16.887C13.5325 16.8767 13.5585 16.8719 13.5846 16.873C13.6107 16.874 13.6362 16.8808 13.6593 16.893C13.7505 16.941 13.8185 16.9742 13.8615 16.9925C13.9053 17.0107 13.989 17.0412 14.1105 17.0827C14.1346 17.0909 14.1566 17.1044 14.175 17.1221C14.1933 17.1398 14.2075 17.1614 14.2165 17.1852L14.3935 17.6529L14.625 17.6479L14.7742 17.2344C14.7828 17.2109 14.7963 17.1894 14.814 17.1716C14.8317 17.1537 14.853 17.14 14.8765 17.1312L15.1357 17.0342C15.2012 17.01 15.2807 16.9717 15.3735 16.9192C15.3991 16.9048 15.428 16.897 15.4575 16.8967C15.4869 16.8963 15.516 16.9034 15.542 16.9172L15.9362 17.126L16.1579 16.9282L15.964 16.5C15.954 16.478 15.9488 16.4541 15.9488 16.43C15.9487 16.4058 15.9538 16.382 15.9637 16.36C16.0092 16.2582 16.04 16.1815 16.0555 16.1325C16.0707 16.0845 16.0865 16.0152 16.1017 15.9262C16.1069 15.896 16.1202 15.8677 16.14 15.8443C16.1598 15.8209 16.1855 15.8031 16.2144 15.793L16.6264 15.6467L16.6444 15.3617L16.2394 15.1882C16.2179 15.179 16.1984 15.1656 16.1822 15.1486C16.166 15.1317 16.1534 15.1117 16.1452 15.0897C16.1163 15.01 16.0848 14.9313 16.0507 14.8537C16.0184 14.7862 15.9834 14.7199 15.9457 14.6552C15.9326 14.6324 15.9251 14.6068 15.9235 14.5805C15.922 14.5542 15.9266 14.5279 15.937 14.5037L16.1182 14.0787L15.9272 13.8812L15.5552 14.0782C15.5309 14.0911 15.504 14.0981 15.4765 14.0987C15.449 14.0993 15.4218 14.0934 15.397 14.0815C15.318 14.0422 15.2373 14.0067 15.155 13.975C15.0848 13.9514 15.0133 13.9322 14.9407 13.9175C14.912 13.9114 14.8852 13.8981 14.863 13.8788C14.8408 13.8595 14.8238 13.8349 14.8137 13.8072L14.6468 13.344L14.647 13.3442ZM14.506 14.4102C15.1147 14.4102 15.6085 14.8985 15.6085 15.5005C15.6085 16.1025 15.1147 16.5905 14.506 16.5905C13.897 16.5905 13.4035 16.1025 13.4035 15.5005C13.4035 14.8985 13.897 14.4105 14.506 14.4105V14.4102ZM14.506 14.7547C14.0893 14.7547 13.7515 15.0885 13.7515 15.5005C13.7515 15.9125 14.0893 16.2465 14.506 16.2465C14.9225 16.2465 15.2602 15.9125 15.2602 15.5005C15.2602 15.0885 14.9227 14.7547 14.506 14.7547Z" fill="black"/>
<path d="M13.5 2.66722V2.66667M15 2.66722V2.66667M16.5 2.66722V2.66667M13.5 4.33389V4.33333M15 4.33389V4.33333M16.5 4.33389V4.33333M13.5 6.00056V6M15 6.00056V6M15 9.33389V9.33333M18 9.88889V2.11111C18 1.81643 17.8946 1.53381 17.7071 1.32544C17.5196 1.11706 17.2652 1 17 1H13C12.7348 1 12.4804 1.11706 12.2929 1.32544C12.1054 1.53381 12 1.81643 12 2.11111V9.88889C12 10.1836 12.1054 10.4662 12.2929 10.6746C12.4804 10.8829 12.7348 11 13 11H17C17.2652 11 17.5196 10.8829 17.7071 10.6746C17.8946 10.4662 18 10.1836 18 9.88889Z" stroke="black" stroke-linecap="round" stroke-linejoin="round"/>
</svg>
