<svg width="28" height="27" viewBox="0 0 28 27" fill="none" xmlns="http://www.w3.org/2000/svg">
<path d="M9.9998 13.5V16.2M9.9998 16.2V18.9M9.9998 16.2H12.6998M9.9998 16.2H7.2998" stroke="black" stroke-linecap="round"/>
<path d="M11.8 23.4C15.1939 23.4 16.8913 23.4 17.9452 22.3452C19 21.2913 19 19.5939 19 16.2C19 12.8061 19 11.1087 17.9452 10.0548C16.8913 9 15.1939 9 11.8 9H8.2C4.8061 9 3.1087 9 2.0548 10.0548C1 11.1087 1 12.8061 1 16.2C1 19.5939 1 21.2913 2.0548 22.3452C2.6425 22.9338 3.43 23.1939 4.6 23.3082" stroke="black" stroke-linecap="round" stroke-linejoin="round"/>
<path d="M11.8003 23.3998C10.6879 23.3998 9.46211 23.8498 8.34341 24.4303C6.54521 25.3636 5.64611 25.8307 5.20331 25.5328C4.76051 25.2358 4.84421 24.3133 5.01251 22.4692L5.05031 22.0498" stroke="black" stroke-linecap="round"/>
<circle cx="20" cy="8" r="7" fill="white"/>
<path d="M20.6 7C20.2 6.9 19.8 6.7 19.5 6.4C19.2 6.3 19.1 6 19.1 5.8C19.1 5.6 19.2 5.3 19.4 5.2C19.7 5 20 4.8 20.3 4.9C20.9 4.9 21.4 5.2 21.7 5.6L22.6 4.4C22.3 4.1 22 3.9 21.7 3.7C21.4 3.5 21 3.4 20.6 3.4V2H19.4V3.4C18.9 3.5 18.4 3.8 18 4.2C17.6 4.7 17.3 5.3 17.4 5.9C17.4 6.5 17.6 7.1 18 7.5C18.5 8 19.2 8.3 19.8 8.6C20.1 8.7 20.5 8.9 20.8 9.1C21 9.3 21.1 9.6 21.1 9.9C21.1 10.2 21 10.5 20.8 10.8C20.5 11.1 20.1 11.2 19.8 11.2C19.4 11.2 18.9 11.1 18.6 10.8C18.3 10.6 18 10.3 17.8 10L16.8 11.1C17.1 11.5 17.4 11.8 17.8 12.1C18.3 12.4 18.9 12.7 19.5 12.7V14H20.6V12.5C21.2 12.4 21.7 12.1 22.1 11.7C22.6 11.2 22.9 10.4 22.9 9.7C22.9 9.1 22.7 8.4 22.2 8C21.7 7.5 21.2 7.2 20.6 7V7ZM20 0C15.6 0 12 3.6 12 8C12 12.4 15.6 16 20 16C24.4 16 28 12.4 28 8C28 3.6 24.4 0 20 0ZM20 14.9C16.2 14.9 13.1 11.8 13.1 8C13.1 4.2 16.2 1.1 20 1.1C23.8 1.1 26.9 4.2 26.9 8C26.9 11.8 23.8 14.9 20 14.9V14.9Z" fill="black"/>
</svg>
