<svg width="48" height="48" viewBox="0 0 48 48" fill="none" xmlns="http://www.w3.org/2000/svg">
<g clip-path="url(#clip0_187_4349)">
<path d="M9.70108 11.492L4.82208 16.369C4.62551 16.5651 4.51039 16.8283 4.49982 17.1058C4.48925 17.3833 4.58401 17.6545 4.76508 17.865L23.1641 39.32C23.2673 39.4408 23.3955 39.5377 23.5399 39.6042C23.6842 39.6707 23.8412 39.7051 24.0001 39.7051C24.159 39.7051 24.316 39.6707 24.4603 39.6042C24.6046 39.5377 24.7328 39.4408 24.8361 39.32L43.2341 17.865C43.4152 17.6545 43.5099 17.3833 43.4993 17.1058C43.4888 16.8283 43.3736 16.5651 43.1771 16.369L35.8061 9H15.5051M5.00008 17.15H43.5001" stroke="black" stroke-linecap="round" stroke-linejoin="round"/>
<path d="M23.7997 38.9998L13.9997 16.9998L15.9997 12.9998L23.9997 9.2998M14.2457 11.3868L15.9997 12.9998M24.1997 38.9998L33.9997 16.9998L31.9997 12.9998L23.9997 9.2998M35.8077 9.4998L32.0007 12.9998M11.9897 4.4458L13.1447 7.9998H16.8817L13.8577 10.1968L15.0127 13.7518L11.9887 11.5548L8.96466 13.7518L10.1197 10.1968L7.09766 7.9998H10.8347L11.9897 4.4458ZM46.6547 65.4998L35.9997 34.4998H39.7367L36.7137 36.6968L37.8687 40.2508L34.8447 38.0538L31.8207 40.2508L32.9757 36.6968L29.9527 34.4998H33.6897L46.6547 65.4998Z" stroke="black" stroke-linecap="round" stroke-linejoin="round"/>
</g>
<defs>
<clipPath id="clip0_187_4349">
<rect width="48" height="48" fill="white"/>
</clipPath>
</defs>
</svg>
