<svg width="36" height="36" viewBox="0 0 36 36" fill="none" xmlns="http://www.w3.org/2000/svg">
<path d="M3.1773 17.6735C3.25593 13.8584 4.80864 10.2218 7.50983 7.52651C8.87029 6.16605 10.4526 5.09442 12.2149 4.3493C14.04 3.57907 15.9782 3.18558 17.9749 3.18558C19.9758 3.18558 21.9139 3.57488 23.7349 4.3493C25.4972 5.09442 27.0795 6.16605 28.4399 7.52651C28.8585 7.94512 29.2478 8.38465 29.6078 8.84093L27.5148 10.4777C27.465 10.5162 27.427 10.5681 27.4053 10.6273C27.3836 10.6865 27.3791 10.7506 27.3922 10.8122C27.4053 10.8739 27.4356 10.9306 27.4795 10.9758C27.5234 11.0211 27.5792 11.053 27.6404 11.0679L34.2041 12.6712C34.4134 12.7214 34.6185 12.5623 34.6185 12.3488L34.652 5.58837C34.652 5.30791 34.3297 5.14884 34.112 5.32465L32.1111 6.89023C28.8292 2.69163 23.7181 0 17.9791 0C8.16285 0 0.180104 7.87395 0.000104676 17.6567C-0.00101259 17.7014 0.00682375 17.7459 0.0231522 17.7875C0.0394806 17.8291 0.0639707 17.867 0.0951793 17.899C0.126388 17.931 0.163684 17.9564 0.204869 17.9737C0.246054 17.9911 0.290296 18 0.334986 18H2.8466C3.0266 18 3.17311 17.8535 3.1773 17.6735ZM35.665 18H33.1534C32.9734 18 32.8227 18.1465 32.8185 18.3265C32.7399 22.1416 31.1872 25.7782 28.486 28.4735C27.138 29.8271 25.5401 30.9061 23.7809 31.6507C21.9558 32.4209 20.0177 32.8144 18.0209 32.8144C16.0242 32.8144 14.0819 32.4251 12.261 31.6507C10.5018 30.9061 8.90384 29.8271 7.55587 28.4735C7.13727 28.0549 6.74797 27.6153 6.38798 27.1591L8.4768 25.5223C8.52666 25.4838 8.56462 25.4319 8.58632 25.3727C8.60801 25.3135 8.61257 25.2494 8.59945 25.1878C8.58633 25.1261 8.55607 25.0694 8.51216 25.0242C8.46825 24.9789 8.41246 24.947 8.35122 24.9321L1.78754 23.3288C1.57824 23.2786 1.37312 23.4377 1.37312 23.6512L1.33963 30.42C1.33963 30.7005 1.66196 30.8595 1.87963 30.6837L3.88055 29.1181C7.17076 33.3084 12.2819 36 18.0209 36C27.8372 36 35.8199 28.126 35.9999 18.3433C36.001 18.2986 35.9932 18.2541 35.9768 18.2125C35.9605 18.1709 35.936 18.133 35.9048 18.101C35.8736 18.069 35.8363 18.0436 35.7951 18.0263C35.7539 18.0089 35.7097 18 35.665 18Z" fill="#1D2D3E"/>
<path d="M17.9988 8.95801C16.2105 8.95801 14.4624 9.4883 12.9755 10.4818C11.4886 11.4754 10.3297 12.8875 9.6453 14.5397C8.96095 16.1919 8.78189 18.0099 9.13077 19.7638C9.47965 21.5178 10.3408 23.1289 11.6053 24.3934C12.8698 25.658 14.4809 26.5191 16.2349 26.868C17.9888 27.2169 19.8068 27.0378 21.459 26.3535C23.1112 25.6691 24.5233 24.5102 25.5168 23.0233C26.5104 21.5363 27.0406 19.7882 27.0406 17.9999C27.0406 16.8125 26.8068 15.6367 26.3524 14.5397C25.898 13.4427 25.232 12.4459 24.3924 11.6063C23.5528 10.7667 22.556 10.1007 21.459 9.64628C20.362 9.19188 19.1862 8.95801 17.9988 8.95801ZM17.9988 25.2334C16.5682 25.2334 15.1697 24.8091 13.9802 24.0143C12.7906 23.2195 11.8635 22.0897 11.316 20.768C10.7685 19.4463 10.6253 17.9918 10.9044 16.5887C11.1835 15.1855 11.8724 13.8966 12.884 12.885C13.8956 11.8734 15.1845 11.1845 16.5877 10.9054C17.9908 10.6263 19.4452 10.7695 20.767 11.317C22.0887 11.8645 23.2184 12.7916 24.0132 13.9812C24.8081 15.1707 25.2323 16.5692 25.2323 17.9999C25.2323 19.9183 24.4702 21.7582 23.1137 23.1147C21.7571 24.4713 19.9173 25.2334 17.9988 25.2334Z" fill="#1D2D3E"/>
<path d="M17.9986 17.0959C16.1902 17.0959 16.1902 16.5262 16.1902 16.1917C16.1902 15.8571 16.8231 15.2875 17.9986 15.2875C19.174 15.2875 19.2554 15.8662 19.2644 16.1917H21.0728C21.0606 15.5757 20.839 14.9823 20.4446 14.509C20.0502 14.0357 19.5064 13.7107 18.9027 13.5876V12.575H17.0944V13.5605C15.286 13.8589 14.3818 15.0253 14.3818 16.1917C14.3818 17.2044 14.852 18.9043 17.9986 18.9043C19.8069 18.9043 19.8069 19.5191 19.8069 19.8084C19.8069 20.0978 19.2463 20.7126 17.9986 20.7126C16.3349 20.7126 16.1902 19.935 16.1902 19.8084H14.3818C14.3818 20.6403 14.9786 22.1141 17.0944 22.4487V23.4252H18.9027V22.4487C20.7111 22.1412 21.6153 20.9748 21.6153 19.8084C21.6153 18.7957 21.1451 17.0959 17.9986 17.0959Z" fill="#1D2D3E"/>
</svg>
