<svg width="37" height="31" viewBox="0 0 37 31" fill="none" xmlns="http://www.w3.org/2000/svg">
<path d="M6.5 12.3333C7.14279 12.3333 7.77114 12.5288 8.3056 12.8951C8.84006 13.2614 9.25662 13.782 9.50261 14.3911C9.74859 15.0001 9.81295 15.6704 9.68755 16.317C9.56215 16.9636 9.25262 17.5575 8.7981 18.0237C8.34358 18.4899 7.76448 18.8073 7.13404 18.936C6.50361 19.0646 5.85014 18.9986 5.25628 18.7463C4.66242 18.494 4.15484 18.0667 3.79772 17.5186C3.44061 16.9704 3.25 16.3259 3.25 15.6667C3.25 14.7826 3.59241 13.9348 4.2019 13.3096C4.8114 12.6845 5.63805 12.3333 6.5 12.3333M6.5 11C5.60009 11 4.7204 11.2737 3.97216 11.7865C3.22391 12.2993 2.64073 13.0281 2.29635 13.8808C1.95197 14.7335 1.86186 15.6718 2.03743 16.5771C2.21299 17.4823 2.64634 18.3139 3.28266 18.9665C3.91899 19.6191 4.72973 20.0636 5.61234 20.2437C6.49495 20.4237 7.40981 20.3313 8.24121 19.9781C9.07261 19.6249 9.78323 19.0268 10.2832 18.2593C10.7831 17.4919 11.05 16.5896 11.05 15.6667C11.05 14.429 10.5706 13.242 9.71734 12.3668C8.86404 11.4917 7.70673 11 6.5 11V11ZM13 31H11.7V27.6667C11.7 27.2289 11.6159 26.7955 11.4526 26.3911C11.2893 25.9866 11.0499 25.6192 10.7481 25.3096C10.4463 25.0001 10.088 24.7546 9.69372 24.5871C9.29941 24.4196 8.8768 24.3333 8.45 24.3333H4.55C3.68805 24.3333 2.8614 24.6845 2.2519 25.3096C1.64241 25.9348 1.3 26.7826 1.3 27.6667V31H0V27.6667C0 26.429 0.479374 25.242 1.33266 24.3668C2.18595 23.4917 3.34326 23 4.55 23H8.45C9.65673 23 10.814 23.4917 11.6673 24.3668C12.5206 25.242 13 26.429 13 27.6667V31Z" fill="black"/>
<path d="M22.1633 13.2897C22.1633 13.4307 22.1073 13.5659 22.0076 13.6656C21.9079 13.7653 21.7727 13.8213 21.6317 13.8213H14.1895C14.0726 13.8213 13.9609 13.9276 13.8653 13.9967L12.0632 15.4161V6.91068C12.0632 6.76969 12.1192 6.63448 12.2189 6.53479C12.3186 6.4351 12.4538 6.37909 12.5948 6.37909H14.6467V5.31592H12.5948C12.1718 5.31592 11.7662 5.48394 11.4671 5.78301C11.168 6.08209 11 6.48772 11 6.91068V16.4792C11.0008 16.578 11.0291 16.6745 11.0816 16.7581C11.1342 16.8417 11.209 16.9089 11.2977 16.9524C11.3831 16.9912 11.4773 17.0067 11.5706 16.9974C11.664 16.9881 11.7532 16.9542 11.8293 16.8992L14.5669 14.8845H21.7115C21.913 14.8904 22.1135 14.855 22.3007 14.7803C22.4879 14.7056 22.6578 14.5932 22.7998 14.4502C22.9419 14.3072 23.053 14.1365 23.1264 13.9488C23.1998 13.7611 23.2339 13.5603 23.2265 13.3588V12.7581H22.1633V13.2897Z" fill="black"/>
<path d="M26.9475 6.49596V11.663L25.087 10.2118C24.9942 10.1397 24.8801 10.1005 24.7627 10.1001H17.3789C17.238 10.1001 17.1027 10.0441 17.0031 9.94442C16.9034 9.84473 16.8474 9.70952 16.8474 9.56853V3.18949C16.8474 3.0485 16.9034 2.91329 17.0031 2.8136C17.1027 2.71391 17.238 2.6579 17.3789 2.6579H21.8974C21.8988 2.29841 21.9489 1.94077 22.0463 1.59473H17.3789C16.956 1.59473 16.5503 1.76275 16.2513 2.06182C15.9522 2.3609 15.7842 2.76653 15.7842 3.18949V9.56853C15.7842 9.99149 15.9522 10.3971 16.2513 10.6962C16.5503 10.9953 16.956 11.1633 17.3789 11.1633H24.5819L27.1229 13.1355C27.1985 13.1913 27.2875 13.2262 27.3808 13.2364C27.4742 13.2467 27.5686 13.232 27.6545 13.194C27.745 13.1509 27.8214 13.0831 27.875 12.9984C27.9286 12.9138 27.9572 12.8157 27.9575 12.7155V6.04411C27.6437 6.24125 27.3037 6.39335 26.9475 6.49596V6.49596Z" fill="black"/>
<path d="M25.8845 5.31587C27.3524 5.31587 28.5424 4.12587 28.5424 2.65794C28.5424 1.19 27.3524 0 25.8845 0C24.4166 0 23.2266 1.19 23.2266 2.65794C23.2266 4.12587 24.4166 5.31587 25.8845 5.31587Z" fill="black"/>
<path d="M31 9.2C31.5933 9.2 32.1734 9.37595 32.6667 9.70559C33.1601 10.0352 33.5446 10.5038 33.7716 11.0519C33.9987 11.6001 34.0581 12.2033 33.9424 12.7853C33.8266 13.3672 33.5409 13.9018 33.1213 14.3213C32.7018 14.7409 32.1672 15.0266 31.5853 15.1424C31.0033 15.2581 30.4001 15.1987 29.852 14.9716C29.3038 14.7446 28.8352 14.3601 28.5056 13.8667C28.1759 13.3734 28 12.7933 28 12.2C28 11.4044 28.3161 10.6413 28.8787 10.0787C29.4413 9.51607 30.2044 9.2 31 9.2M31 8C30.1693 8 29.3573 8.24633 28.6666 8.70783C27.9759 9.16933 27.4376 9.82528 27.1197 10.5927C26.8018 11.3602 26.7186 12.2047 26.8807 13.0194C27.0428 13.8341 27.4428 14.5825 28.0302 15.1698C28.6175 15.7572 29.3659 16.1572 30.1806 16.3193C30.9953 16.4814 31.8398 16.3982 32.6073 16.0803C33.3747 15.7624 34.0307 15.2241 34.4922 14.5334C34.9537 13.8427 35.2 13.0307 35.2 12.2C35.2 11.0861 34.7575 10.0178 33.9698 9.23015C33.1822 8.4425 32.1139 8 31 8V8ZM37 26H35.8V23C35.8 22.606 35.7224 22.2159 35.5716 21.8519C35.4209 21.488 35.1999 21.1573 34.9213 20.8787C34.6427 20.6001 34.312 20.3791 33.9481 20.2284C33.5841 20.0776 33.194 20 32.8 20H29.2C28.4044 20 27.6413 20.3161 27.0787 20.8787C26.5161 21.4413 26.2 22.2044 26.2 23V26H25V23C25 21.8861 25.4425 20.8178 26.2302 20.0302C27.0178 19.2425 28.0861 18.8 29.2 18.8H32.8C33.9139 18.8 34.9822 19.2425 35.7698 20.0302C36.5575 20.8178 37 21.8861 37 23V26Z" fill="black"/>
</svg>
